<svg width="871" height="215" viewBox="0 0 871 215" fill="none" xmlns="http://www.w3.org/2000/svg">
<path d="M65.9468 26.32V30.52C61.3268 30.66 57.8268 31.22 55.4468 32.2C53.0668 33.04 51.4568 34.72 50.6168 37.24C49.7768 39.62 49.3568 43.4 49.3568 48.58V152.74C49.3568 157.78 49.7768 161.56 50.6168 164.08C51.4568 166.6 53.0668 168.28 55.4468 169.12C57.8268 169.96 61.3268 170.52 65.9468 170.8V175C62.5868 174.72 58.3168 174.58 53.1368 174.58C48.0968 174.44 42.9168 174.37 37.5968 174.37C31.7168 174.37 26.1868 174.44 21.0068 174.58C15.9668 174.58 11.8368 174.72 8.61676 175V170.8C13.3768 170.52 16.9468 169.96 19.3268 169.12C21.7068 168.28 23.2468 166.6 23.9468 164.08C24.7868 161.56 25.2068 157.78 25.2068 152.74V48.58C25.2068 43.4 24.7868 39.62 23.9468 37.24C23.2468 34.72 21.6368 33.04 19.1168 32.2C16.7368 31.22 13.2368 30.66 8.61676 30.52V26.32C11.8368 26.46 15.9668 26.6 21.0068 26.74C26.1868 26.88 31.7168 26.95 37.5968 26.95C42.9168 26.95 48.0968 26.88 53.1368 26.74C58.3168 26.6 62.5868 26.46 65.9468 26.32ZM117.754 63.7C123.354 63.7 128.184 64.61 132.244 66.43C136.444 68.11 139.454 69.65 141.274 71.05C145.894 74.69 148.764 72.31 149.884 63.91H154.504C154.224 67.83 154.014 72.59 153.874 78.19C153.734 83.65 153.664 90.93 153.664 100.03H149.044C148.204 94.85 146.734 89.81 144.634 84.91C142.674 80.01 139.734 75.95 135.814 72.73C132.034 69.51 127.064 67.9 120.904 67.9C116.284 67.9 112.434 69.23 109.354 71.89C106.274 74.41 104.734 78.19 104.734 83.23C104.734 87.43 105.994 91.07 108.514 94.15C111.034 97.23 114.254 100.1 118.174 102.76C122.234 105.42 126.574 108.29 131.194 111.37C136.374 114.87 140.994 118.37 145.054 121.87C149.254 125.23 152.544 129.01 154.924 133.21C157.444 137.41 158.704 142.31 158.704 147.91C158.704 154.35 156.954 159.81 153.454 164.29C150.094 168.77 145.614 172.2 140.014 174.58C134.414 176.82 128.254 177.94 121.534 177.94C118.174 177.94 115.024 177.59 112.084 176.89C109.144 176.33 106.414 175.56 103.894 174.58C102.354 173.74 100.814 172.9 99.2744 172.06C97.8744 171.08 96.4744 170.17 95.0744 169.33C93.6744 168.35 92.4144 168.49 91.2944 169.75C90.1744 171.01 89.3344 173.25 88.7744 176.47H84.1544C84.4344 171.99 84.6444 166.53 84.7844 160.09C84.9244 153.65 84.9944 145.11 84.9944 134.47H89.6144C90.5944 142.17 92.0644 148.96 94.0244 154.84C95.9844 160.72 98.8544 165.34 102.634 168.7C106.554 171.92 111.874 173.53 118.594 173.53C121.254 173.53 123.914 172.97 126.574 171.85C129.234 170.59 131.404 168.63 133.084 165.97C134.904 163.31 135.814 159.74 135.814 155.26C135.814 149.1 133.644 144.06 129.304 140.14C125.104 136.08 119.644 131.81 112.924 127.33C108.164 123.97 103.614 120.68 99.2744 117.46C95.0744 114.1 91.6444 110.39 88.9844 106.33C86.3244 102.13 84.9944 97.16 84.9944 91.42C84.9944 85.12 86.4644 79.94 89.4044 75.88C92.4844 71.82 96.5444 68.81 101.584 66.85C106.624 64.75 112.014 63.7 117.754 63.7ZM203.256 176.47C197.376 176.47 192.336 175.35 188.136 173.11C183.936 170.87 180.786 167.79 178.686 163.87C176.586 159.95 175.536 155.47 175.536 150.43C175.536 144.27 176.936 139.3 179.736 135.52C182.536 131.6 186.106 128.45 190.446 126.07C194.926 123.69 199.616 121.73 204.516 120.19C209.556 118.51 214.246 116.97 218.586 115.57C223.066 114.03 226.706 112.28 229.506 110.32C232.446 108.36 233.916 105.77 233.916 102.55V88.27C233.916 83.23 233.076 79.24 231.396 76.3C229.856 73.22 227.686 71.05 224.886 69.79C222.226 68.53 219.006 67.9 215.226 67.9C212.006 67.9 208.576 68.39 204.936 69.37C201.296 70.21 198.426 71.96 196.326 74.62C199.406 75.46 201.926 77.14 203.886 79.66C205.986 82.04 207.036 85.05 207.036 88.69C207.036 92.61 205.706 95.69 203.046 97.93C200.526 100.17 197.306 101.29 193.386 101.29C189.046 101.29 185.826 99.96 183.726 97.3C181.626 94.5 180.576 91.28 180.576 87.64C180.576 83.86 181.486 80.78 183.306 78.4C185.266 76.02 187.786 73.78 190.866 71.68C194.226 69.44 198.496 67.55 203.676 66.01C208.996 64.47 214.876 63.7 221.316 63.7C227.336 63.7 232.516 64.4 236.856 65.8C241.336 67.06 245.046 69.16 247.986 72.1C251.486 75.32 253.796 79.38 254.916 84.28C256.036 89.04 256.596 94.85 256.596 101.71V159.67C256.596 163.17 257.016 165.69 257.856 167.23C258.836 168.63 260.376 169.33 262.476 169.33C263.876 169.33 265.206 168.98 266.466 168.28C267.866 167.58 269.476 166.53 271.296 165.13L273.396 168.7C270.456 171.08 267.446 172.97 264.366 174.37C261.426 175.77 257.646 176.47 253.026 176.47C248.546 176.47 244.906 175.77 242.106 174.37C239.306 172.97 237.206 170.94 235.806 168.28C234.546 165.62 233.916 162.33 233.916 158.41C230.276 164.29 225.936 168.77 220.896 171.85C215.856 174.93 209.976 176.47 203.256 176.47ZM213.336 166.39C217.256 166.39 220.896 165.27 224.256 163.03C227.756 160.79 230.976 157.43 233.916 152.95V111.16C232.376 113.4 230.136 115.36 227.196 117.04C224.256 118.58 221.106 120.19 217.746 121.87C214.386 123.55 211.166 125.51 208.086 127.75C205.146 129.85 202.696 132.58 200.736 135.94C198.776 139.3 197.796 143.57 197.796 148.75C197.796 154.21 199.196 158.55 201.996 161.77C204.796 164.85 208.576 166.39 213.336 166.39ZM309.281 176.47C303.401 176.47 298.361 175.35 294.161 173.11C289.961 170.87 286.811 167.79 284.711 163.87C282.611 159.95 281.561 155.47 281.561 150.43C281.561 144.27 282.961 139.3 285.761 135.52C288.561 131.6 292.131 128.45 296.471 126.07C300.951 123.69 305.641 121.73 310.541 120.19C315.581 118.51 320.271 116.97 324.611 115.57C329.091 114.03 332.731 112.28 335.531 110.32C338.471 108.36 339.941 105.77 339.941 102.55V88.27C339.941 83.23 339.101 79.24 337.421 76.3C335.881 73.22 333.711 71.05 330.911 69.79C328.251 68.53 325.031 67.9 321.251 67.9C318.031 67.9 314.601 68.39 310.961 69.37C307.321 70.21 304.451 71.96 302.351 74.62C305.431 75.46 307.951 77.14 309.911 79.66C312.011 82.04 313.061 85.05 313.061 88.69C313.061 92.61 311.731 95.69 309.071 97.93C306.551 100.17 303.331 101.29 299.411 101.29C295.071 101.29 291.851 99.96 289.751 97.3C287.651 94.5 286.601 91.28 286.601 87.64C286.601 83.86 287.511 80.78 289.331 78.4C291.291 76.02 293.811 73.78 296.891 71.68C300.251 69.44 304.521 67.55 309.701 66.01C315.021 64.47 320.901 63.7 327.341 63.7C333.361 63.7 338.541 64.4 342.881 65.8C347.361 67.06 351.071 69.16 354.011 72.1C357.511 75.32 359.821 79.38 360.941 84.28C362.061 89.04 362.621 94.85 362.621 101.71V159.67C362.621 163.17 363.041 165.69 363.881 167.23C364.861 168.63 366.401 169.33 368.501 169.33C369.901 169.33 371.231 168.98 372.491 168.28C373.891 167.58 375.501 166.53 377.321 165.13L379.421 168.7C376.481 171.08 373.471 172.97 370.391 174.37C367.451 175.77 363.671 176.47 359.051 176.47C354.571 176.47 350.931 175.77 348.131 174.37C345.331 172.97 343.231 170.94 341.831 168.28C340.571 165.62 339.941 162.33 339.941 158.41C336.301 164.29 331.961 168.77 326.921 171.85C321.881 174.93 316.001 176.47 309.281 176.47ZM319.361 166.39C323.281 166.39 326.921 165.27 330.281 163.03C333.781 160.79 337.001 157.43 339.941 152.95V111.16C338.401 113.4 336.161 115.36 333.221 117.04C330.281 118.58 327.131 120.19 323.771 121.87C320.411 123.55 317.191 125.51 314.111 127.75C311.171 129.85 308.721 132.58 306.761 135.94C304.801 139.3 303.821 143.57 303.821 148.75C303.821 154.21 305.221 158.55 308.021 161.77C310.821 164.85 314.601 166.39 319.361 166.39ZM439.036 63.7C443.796 63.7 448.346 64.33 452.686 65.59C457.026 66.71 460.806 68.32 464.026 70.42C467.386 72.52 469.906 75.04 471.586 77.98C473.406 80.92 474.316 84.14 474.316 87.64C474.316 91.84 473.126 95.13 470.746 97.51C468.366 99.89 465.286 101.08 461.506 101.08C457.726 101.08 454.576 100.03 452.056 97.93C449.536 95.83 448.276 92.82 448.276 88.9C448.276 85.26 449.326 82.32 451.426 80.08C453.526 77.7 455.976 76.16 458.776 75.46C457.516 73.36 455.276 71.61 452.056 70.21C448.976 68.67 445.616 67.9 441.976 67.9C438.196 67.9 434.556 68.88 431.056 70.84C427.696 72.8 424.686 75.81 422.026 79.87C419.366 83.93 417.196 89.18 415.516 95.62C413.976 102.06 413.206 109.83 413.206 118.93C413.206 130.69 414.536 140.07 417.196 147.07C419.996 153.93 423.636 158.83 428.116 161.77C432.596 164.71 437.426 166.18 442.606 166.18C445.966 166.18 449.396 165.55 452.896 164.29C456.536 163.03 459.966 160.93 463.186 157.99C466.546 155.05 469.486 151.06 472.006 146.02L475.996 147.49C474.456 152.11 472.006 156.8 468.646 161.56C465.426 166.32 461.156 170.24 455.836 173.32C450.516 176.4 444.006 177.94 436.306 177.94C427.486 177.94 419.506 175.77 412.366 171.43C405.226 167.09 399.556 160.79 395.356 152.53C391.156 144.13 389.056 133.91 389.056 121.87C389.056 110.11 391.156 99.89 395.356 91.21C399.696 82.39 405.646 75.6 413.206 70.84C420.766 66.08 429.376 63.7 439.036 63.7ZM599.98 26.32V30.52C595.22 30.66 591.58 31.22 589.06 32.2C586.68 33.04 585.07 34.72 584.23 37.24C583.39 39.62 582.97 43.4 582.97 48.58V153.58C582.97 158.34 583.32 161.91 584.02 164.29C584.86 166.67 586.4 168.28 588.64 169.12C591.02 169.82 594.38 170.17 598.72 170.17H612.37C618.39 170.17 623.43 169.33 627.49 167.65C631.69 165.97 635.19 163.45 637.99 160.09C640.79 156.73 642.96 152.39 644.5 147.07C646.04 141.75 647.23 135.52 648.07 128.38H652.9C652.48 132.86 652.27 138.74 652.27 146.02C652.27 148.82 652.34 152.95 652.48 158.41C652.76 163.73 653.18 169.26 653.74 175C646.6 174.72 638.55 174.58 629.59 174.58C620.63 174.44 612.65 174.37 605.65 174.37C602.43 174.37 598.3 174.37 593.26 174.37C588.22 174.37 582.76 174.44 576.88 174.58C571.14 174.58 565.26 174.65 559.24 174.79C553.36 174.79 547.69 174.86 542.23 175V170.8C546.99 170.52 550.56 169.96 552.94 169.12C555.32 168.28 556.86 166.6 557.56 164.08C558.4 161.56 558.82 157.78 558.82 152.74V48.58C558.82 43.4 558.4 39.62 557.56 37.24C556.86 34.72 555.25 33.04 552.73 32.2C550.35 31.22 546.85 30.66 542.23 30.52V26.32C545.45 26.46 549.58 26.6 554.62 26.74C559.8 26.88 565.33 26.95 571.21 26.95C576.53 26.95 581.78 26.88 586.96 26.74C592.28 26.6 596.62 26.46 599.98 26.32ZM694.418 176.47C688.538 176.47 683.498 175.35 679.298 173.11C675.098 170.87 671.948 167.79 669.848 163.87C667.748 159.95 666.698 155.47 666.698 150.43C666.698 144.27 668.098 139.3 670.898 135.52C673.698 131.6 677.268 128.45 681.608 126.07C686.088 123.69 690.778 121.73 695.678 120.19C700.718 118.51 705.408 116.97 709.748 115.57C714.228 114.03 717.868 112.28 720.668 110.32C723.608 108.36 725.078 105.77 725.078 102.55V88.27C725.078 83.23 724.238 79.24 722.558 76.3C721.018 73.22 718.848 71.05 716.048 69.79C713.388 68.53 710.168 67.9 706.388 67.9C703.168 67.9 699.738 68.39 696.098 69.37C692.458 70.21 689.588 71.96 687.488 74.62C690.568 75.46 693.088 77.14 695.048 79.66C697.148 82.04 698.198 85.05 698.198 88.69C698.198 92.61 696.868 95.69 694.208 97.93C691.688 100.17 688.468 101.29 684.548 101.29C680.208 101.29 676.988 99.96 674.888 97.3C672.788 94.5 671.738 91.28 671.738 87.64C671.738 83.86 672.648 80.78 674.468 78.4C676.428 76.02 678.948 73.78 682.028 71.68C685.388 69.44 689.658 67.55 694.838 66.01C700.158 64.47 706.038 63.7 712.478 63.7C718.498 63.7 723.678 64.4 728.018 65.8C732.498 67.06 736.208 69.16 739.148 72.1C742.648 75.32 744.958 79.38 746.078 84.28C747.198 89.04 747.758 94.85 747.758 101.71V159.67C747.758 163.17 748.178 165.69 749.018 167.23C749.998 168.63 751.538 169.33 753.638 169.33C755.038 169.33 756.368 168.98 757.628 168.28C759.028 167.58 760.638 166.53 762.458 165.13L764.558 168.7C761.618 171.08 758.608 172.97 755.528 174.37C752.588 175.77 748.808 176.47 744.188 176.47C739.708 176.47 736.068 175.77 733.268 174.37C730.468 172.97 728.368 170.94 726.968 168.28C725.708 165.62 725.078 162.33 725.078 158.41C721.438 164.29 717.098 168.77 712.058 171.85C707.018 174.93 701.138 176.47 694.418 176.47ZM704.498 166.39C708.418 166.39 712.058 165.27 715.418 163.03C718.918 160.79 722.138 157.43 725.078 152.95V111.16C723.538 113.4 721.298 115.36 718.358 117.04C715.418 118.58 712.268 120.19 708.908 121.87C705.548 123.55 702.328 125.51 699.248 127.75C696.308 129.85 693.858 132.58 691.898 135.94C689.938 139.3 688.958 143.57 688.958 148.75C688.958 154.21 690.358 158.55 693.158 161.77C695.958 164.85 699.738 166.39 704.498 166.39ZM868.728 66.64V70.84C866.068 71.26 863.618 72.66 861.378 75.04C859.138 77.28 856.968 81.2 854.868 86.8L822.108 174.58L817.068 179.62L776.118 82.81C773.458 77.35 770.868 74.06 768.348 72.94C765.968 71.68 763.938 71.05 762.258 71.05V66.64C765.758 67.06 769.468 67.41 773.388 67.69C777.308 67.83 781.368 67.9 785.568 67.9C790.328 67.9 795.088 67.76 799.848 67.48C804.748 67.2 809.298 66.92 813.498 66.64V71.05C810.138 71.05 807.128 71.33 804.468 71.89C801.948 72.31 800.268 73.64 799.428 75.88C798.728 77.98 799.428 81.62 801.528 86.8L827.568 150.85L826.098 151.48L847.308 95.2C849.408 89.6 850.248 85.12 849.828 81.76C849.408 78.26 847.938 75.67 845.418 73.99C842.898 72.17 839.188 71.12 834.288 70.84V66.64C836.668 66.78 838.838 66.92 840.798 67.06C842.898 67.06 844.928 67.13 846.888 67.27C848.848 67.27 850.808 67.27 852.768 67.27C855.848 67.27 858.718 67.2 861.378 67.06C864.178 66.92 866.628 66.78 868.728 66.64ZM822.108 174.58L814.548 194.32C813.148 197.82 811.678 200.76 810.138 203.14C808.738 205.52 807.198 207.48 805.518 209.02C803.418 210.98 800.828 212.38 797.748 213.22C794.668 214.06 791.588 214.48 788.508 214.48C785.568 214.48 782.768 213.92 780.108 212.8C777.588 211.82 775.488 210.28 773.808 208.18C772.128 206.08 771.288 203.49 771.288 200.41C771.288 196.77 772.478 193.83 774.858 191.59C777.238 189.35 780.388 188.23 784.308 188.23C787.808 188.23 790.748 189.14 793.128 190.96C795.508 192.92 796.698 195.72 796.698 199.36C796.698 201.88 795.998 204.05 794.598 205.87C793.338 207.69 791.658 209.09 789.558 210.07C789.978 210.21 790.398 210.28 790.818 210.28C791.238 210.28 791.588 210.28 791.868 210.28C795.788 210.28 799.288 208.95 802.368 206.29C805.448 203.77 808.038 199.64 810.138 193.9L817.698 173.74L822.108 174.58Z" fill="#652e65"/>
<path d="M13.88 5H15.88L13.08 19H11.08L13.88 5ZM3.04 19H1.04L3.84 5H5.84L3.04 19ZM12.52 12.76H4.12L4.46 11.02H12.86L12.52 12.76ZM17.0105 19L19.1105 8.4H21.0305L18.9305 19H17.0105ZM20.6305 6.36C20.2705 6.36 19.9771 6.24667 19.7505 6.02C19.5371 5.79333 19.4305 5.52 19.4305 5.2C19.4305 4.82667 19.5571 4.51333 19.8105 4.26C20.0638 3.99333 20.3971 3.86 20.8105 3.86C21.1571 3.86 21.4438 3.97333 21.6705 4.2C21.9105 4.41333 22.0305 4.67333 22.0305 4.98C22.0305 5.39333 21.9038 5.72667 21.6505 5.98C21.3971 6.23333 21.0571 6.36 20.6305 6.36ZM21.2164 21.96L23.0364 17.92L23.2164 19.12C22.8564 19.12 22.5497 19 22.2964 18.76C22.0564 18.5067 21.9364 18.2 21.9364 17.84C21.9364 17.4 22.0764 17.0467 22.3564 16.78C22.6364 16.5133 22.9697 16.38 23.3564 16.38C23.7164 16.38 24.0164 16.5 24.2564 16.74C24.4964 16.98 24.6164 17.2933 24.6164 17.68C24.6164 17.8933 24.5764 18.0933 24.4964 18.28C24.4297 18.4667 24.3164 18.6933 24.1564 18.96L22.4764 21.96H21.2164ZM32.7588 19L35.5588 5H37.5588L34.7588 19H32.7588ZM48.7213 19.12C47.8279 19.12 47.0279 18.94 46.3213 18.58C45.6146 18.2067 45.0546 17.68 44.6413 17C44.2413 16.32 44.0413 15.5 44.0413 14.54C44.0413 13.6333 44.1879 12.8 44.4813 12.04C44.7879 11.28 45.2079 10.62 45.7413 10.06C46.2879 9.5 46.9279 9.06667 47.6613 8.76C48.3946 8.45333 49.1879 8.3 50.0413 8.3C50.9613 8.3 51.7413 8.46 52.3813 8.78C53.0213 9.1 53.5146 9.57333 53.8613 10.2C54.2079 10.8133 54.3813 11.5667 54.3813 12.46C54.3813 13.7667 54.1546 14.9267 53.7013 15.94C53.2479 16.94 52.5946 17.72 51.7413 18.28C50.9013 18.84 49.8946 19.12 48.7213 19.12ZM49.1413 17.44C49.9413 17.44 50.6546 17.2467 51.2813 16.86C51.9079 16.4733 52.3946 15.9467 52.7413 15.28C53.1013 14.6 53.2812 13.8267 53.2812 12.96C53.2812 12.0267 53.0079 11.3 52.4613 10.78C51.9146 10.2467 51.1346 9.98 50.1213 9.98C49.3346 9.98 48.6279 10.1733 48.0013 10.56C47.3746 10.9333 46.8813 11.46 46.5213 12.14C46.1613 12.8067 45.9813 13.58 45.9813 14.46C45.9813 15.38 46.2546 16.1067 46.8013 16.64C47.3479 17.1733 48.1279 17.44 49.1413 17.44ZM52.2013 19L52.7613 16.26L53.4013 13.8L53.6613 11.28L54.2213 8.4H56.1413L54.0413 19H52.2013ZM72.7741 8.3C73.7207 8.3 74.5007 8.48667 75.1141 8.86C75.7274 9.23333 76.1541 9.78 76.3941 10.5C76.6474 11.2067 76.6674 12.06 76.4541 13.06L75.2741 19H73.3541L74.5341 13.06C74.7341 12.1 74.6474 11.3533 74.2741 10.82C73.9141 10.2867 73.2541 10.02 72.2941 10.02C71.3207 10.02 70.5141 10.2933 69.8741 10.84C69.2341 11.3867 68.8007 12.22 68.5741 13.34L67.4341 19H65.5141L66.7141 13.06C66.9007 12.1 66.8074 11.3533 66.4341 10.82C66.0741 10.2867 65.4141 10.02 64.4541 10.02C63.4807 10.02 62.6741 10.3 62.0341 10.86C61.3941 11.4067 60.9607 12.2533 60.7341 13.4L59.6141 19H57.6941L59.7941 8.4H61.6341L61.0341 11.44L60.6741 10.62C61.1674 9.82 61.7874 9.23333 62.5341 8.86C63.2941 8.48667 64.1341 8.3 65.0541 8.3C65.7741 8.3 66.4007 8.42 66.9341 8.66C67.4674 8.9 67.8874 9.26 68.1941 9.74C68.5141 10.2067 68.7007 10.7733 68.7541 11.44L67.7141 11.24C68.2607 10.2533 68.9607 9.52 69.8141 9.04C70.6807 8.54667 71.6674 8.3 72.7741 8.3Z" fill="#652e65"/>
</svg>
